# xmcd CD database file
#
# Track frame offsets:
#	150
#	12006
#	31889
#	52411
#	69119
#	83986
#	104005
#	120151
#	138996
#	157857
#	176994
#	197469
#	214712
#	235184
#	251475
#	269750
#	289332
#	311227
#	330991
#
# Disc length: 4633 seconds
#
# Revision: 0
# Processed by: cddbd v1.5PL3 Copyright (c) Steve Scherf et al.
# Submitted via: CDex 1.51
#
DISCID=0f121713
DTITLE=merengue - 17 exitos
DYEAR=2004
DGENRE=Merengue
TTITLE0=intro
TTITLE1=la mesa que mas aplauda
TTITLE2=el baile del perito
TTITLE3=el venao
TTITLE4=1,2,3
TTITLE5=suavemente
TTITLE6=la faldita
TTITLE7=el beeper
TTITLE8=la dueña del swing
TTITLE9=la vaca
TTITLE10=el baile del mono
TTITLE11=el ombliguito
TTITLE12=tu sonrisa
TTITLE13=el chicharron
TTITLE14=rompecintura
TTITLE15=el baile del sua sua
TTITLE16=la nalgadita
TTITLE17=mambo # 8
TTITLE18=otro
EXTD=YEAR: 2004
EXTT0=
EXTT1=
EXTT2=
EXTT3=
EXTT4=
EXTT5=
EXTT6=
EXTT7=
EXTT8=
EXTT9=
EXTT10=
EXTT11=
EXTT12=
EXTT13=
EXTT14=
EXTT15=
EXTT16=
EXTT17=
EXTT18=
PLAYORDER=
